{
  "title": "A Place to Call Home - S04E02 - Bad In A Good Way",
  "uid": 15854941,
  "size": 438200150,
  "categoryP": "video",
  "categoryS": "tv_shows",
  "magnet": "?xt=urn:btih:39542b1fba5f389ed86ee85c6eb8b214aba17df6&amp;dn=A+Place+to+Call+Home+-+S04E02+-+Bad+In+A+Good+Way&amp;tr=udp%3A%2F%2Ftracker.leechers-paradise.org%3A6969&amp;tr=udp%3A%2F%2Fzer0day.ch%3A1337&amp;tr=udp%3A%2F%2Fopen.demonii.com%3A1337&amp;tr=udp%3A%2F%2Ftracker.coppersurfer.tk%3A6969&amp;tr=udp%3A%2F%2Fexodus.desync.com%3A6969",
  "seeders": 101,
  "leechers": 13,
  "uploader": "Bullrout",
  "files": 1,
  "time": 1474234056,
  "description": "A Place to Call Home - S04E02 - Bad In A Good Way\r\n\r\nRegina weaves another tendril around George. James is rattled by Olivia's confession. Jack proves to Carolyn that she's worthy of him.\r\n\r\nComplete name                            : A Place to Call Home - S04E02 - Bad In A Good Way.mp4\r\nFormat                                   : MPEG-4\r\nFormat profile                           : Base Media / Version 2\r\nCodec ID                                 : mp42 (mp42/isom/avc1)\r\nFile size                                : 418 MiB\r\nDuration                                 : 52 min 52 s\r\nOverall bit rate mode                    : Variable\r\nOverall bit rate                         : 1 105 kb/s\r\n\r\nVideo\r\nID                                       : 2\r\nFormat                                   : AVC\r\nFormat/Info                              : Advanced Video Codec\r\nFormat profile                           :   \r\nFormat settings, CABAC                   : Yes\r\nFormat settings, ReFrames                : 3 frames\r\nCodec ID                                 : avc1\r\nCodec ID/Info                            : Advanced Video Coding\r\nDuration                                 : 52 min 52 s\r\nBit rate mode                            : Variable\r\nBit rate                                 : 974 kb/s\r\nMaximum bit rate                         : 1 000 kb/s\r\nWidth                                    : 720 pixels\r\nHeight                                   : 404 pixels\r\nDisplay aspect ratio                     : 16:9\r\nOriginal display aspect ratio            : 16:9\r\nFrame rate mode                          : Constant\r\nFrame rate                               : 25.000 FPS\r\nStandard                                 : PAL\r\nColor space                              : YUV\r\nChroma subsampling                       : 4:2:0\r\nBit depth                                : 8 bits\r\nScan type                                : Progressive\r\nBits/(Pixel*Frame)                       : 0.134\r\nStream size                              : 368 MiB (88%)\r\nWriting library                          : x264 core 112\r\nColor range                              : Limited\r\nColor primaries                          : BT.601 PAL\r\nTransfer characteristics                 : BT.470 System B, BT.470 System G\r\nMatrix coefficients                      : BT.601\r\n\r\nAudio\r\nID                                       : 1\r\nFormat                                   : AAC\r\nFormat/Info                              : Advanced Audio Codec\r\nFormat profile                           : LC\r\nCodec ID                                 : 40\r\nDuration                                 : 52 min 52 s\r\nBit rate mode                            : Variable\r\nBit rate                                 : 128 kb/s\r\nMaximum bit rate                         : 576 kb/s\r\nChannel(s)                               : 2 channels\r\nChannel positions                        : Front: L R\r\nSampling rate                            : 48.0 kHz\r\nFrame rate                               : 46.875 FPS (1024 spf)\r\nCompression mode                         : Lossy\r\nStream size                              : 48.4 MiB (12%)",
  "parsed": {
    "xt": "urn:btih:39542b1fba5f389ed86ee85c6eb8b214aba17df6",
    "dn": "A Place to Call Home - S04E02 - Bad In A Good Way",
    "tr": [
      "udp://exodus.desync.com:6969",
      "udp://open.demonii.com:1337",
      "udp://tracker.coppersurfer.tk:6969",
      "udp://tracker.leechers-paradise.org:6969",
      "udp://zer0day.ch:1337"
    ],
    "infoHash": "39542b1fba5f389ed86ee85c6eb8b214aba17df6",
    "infoHashBuffer": {
      "type": "Buffer",
      "data": [
        57,
        84,
        43,
        31,
        186,
        95,
        56,
        158,
        216,
        110,
        232,
        92,
        110,
        184,
        178,
        20,
        171,
        161,
        125,
        246
      ]
    },
    "name": "A Place to Call Home - S04E02 - Bad In A Good Way",
    "announce": [
      "udp://exodus.desync.com:6969",
      "udp://open.demonii.com:1337",
      "udp://tracker.coppersurfer.tk:6969",
      "udp://tracker.leechers-paradise.org:6969",
      "udp://zer0day.ch:1337"
    ],
    "urlList": []
  },
  "previous": 114,
  "peers": 162,
  "last_updated": "2016-12-24T22:23:30.695Z"
}